<svg xmlns="http://www.w3.org/2000/svg" viewBox="0 0 512 512">
  <rect width="512" height="512" rx="112" fill="#1565c0"/>
  <circle cx="256" cy="256" r="188" fill="#5e92f3" opacity="0.35"/>
  <path fill="#fff" d="M256 105c-40 0-72 32-72 72v94c0 40 32 72 72 72s72-32 72-72v-94c0-40-32-72-72-72Zm122 162c0 67-55 122-122 122s-122-55-122-122h-42c0 83 62 151 143 162v51h42v-51c81-11 143-79 143-162h-42Z"/>
  <path fill="#ffb74d" d="M162 75h188c21 0 38 17 38 38v16H124v-16c0-21 17-38 38-38Z" opacity="0.95"/>
</svg>
